<svg width="921" height="132" viewBox="0 0 921 132" fill="none" xmlns="http://www.w3.org/2000/svg">
<g clip-path="url(#clip0_149_726)">
<path d="M221.05 92.4001C220 92.4001 219.47 91.8001 219.47 90.5101V41.4701C219.47 40.1901 220 39.5801 220.98 39.5801H235.31V92.3901H221.05V92.4001Z" fill="black"/>
<path d="M268.73 87.1198L265.79 92.3998H246.63L276.88 39.5898H290.16L320.41 92.3998H301.55L298.61 87.1198H268.74H268.73ZM284.95 63.4398H282.39L276.58 73.5498H290.76L284.95 63.4398Z" fill="black"/>
<path d="M395.85 92.3998H379.25L371.1 78.7498H347.56V92.3998H331.72V41.4798C331.72 40.1998 332.25 39.5898 333.23 39.5898H382.12C390.72 39.5898 395.17 41.9998 395.47 46.8298C395.7 51.6598 395.85 55.7298 395.85 59.0498C395.85 61.9898 395.77 64.9298 395.62 67.8798C395.32 74.0698 392.53 77.4598 387.25 78.2898L395.85 92.3998ZM375.48 65.9998C377.97 65.9998 379.25 64.7198 379.25 62.2298V56.7198C379.25 54.1598 377.97 52.8698 375.48 52.8698H349.83C348.32 52.8698 347.57 53.5498 347.57 54.8298V64.0298C347.57 65.3098 348.32 65.9898 349.83 65.9898H375.48V65.9998Z" fill="black"/>
<path d="M429.28 87.1198L426.34 92.3998H407.18L437.43 39.5898H450.71L480.96 92.3998H462.1L459.16 87.1198H429.29H429.28ZM445.5 63.4398H442.94L437.13 73.5498H451.31L445.5 63.4398Z" fill="black"/>
<path d="M556.09 73.5398V65.9998C556.09 63.5098 557.37 62.2298 559.86 62.2298H593.81C596.3 62.2298 597.58 63.5098 597.58 65.9998V77.3198C597.58 87.3498 591.32 92.4098 578.72 92.4798L547.19 92.3998C538.59 92.3998 534.14 89.0798 533.91 82.4398C533.68 75.8798 533.53 70.3698 533.53 65.9898C533.53 61.6098 533.61 57.1598 533.76 52.7898C534.14 43.9598 538.59 39.5898 547.19 39.5898H583.86C592.46 39.5898 596.99 43.9698 597.36 52.7898L597.51 58.3698H581.06C581.06 54.6698 578.57 52.8598 573.52 52.8598H553.15C550.66 52.8598 549.38 54.1398 549.38 56.7098V75.4198C549.38 77.6098 550.66 78.7398 553.15 78.7398H577.29C579.78 78.7398 581.06 76.9998 581.06 73.5298H556.09V73.5398Z" fill="black"/>
<path d="M631 87.1198L628.06 92.3998H608.9L639.15 39.5898H652.43L682.68 92.3998H663.82L660.88 87.1198H631.01H631ZM647.22 63.4398H644.66L638.85 73.5498H653.03L647.22 63.4398Z" fill="black"/>
<path d="M709.84 92.4001H695.73C694.6 92.4001 694 91.8001 694 90.5101V41.4701C694 40.1901 694.53 39.5801 695.66 39.5801H709.84L729.3 71.2601H732.85L752.09 39.5801H767.78C768.91 39.5801 769.44 40.1801 769.44 41.4701V90.8801C769.44 91.8601 768.91 92.3901 767.78 92.3901H752.09V71.1901L738.44 92.3901H723.35L709.85 71.0401V92.3901L709.84 92.4001Z" fill="black"/>
<path d="M844.891 82.5201V92.4001H782.35C781.29 92.4001 780.771 91.8001 780.771 90.5101V41.4701C780.771 40.1901 781.301 39.5801 782.281 39.5801H841.12C843.61 39.5801 844.891 40.7901 844.891 43.2801V52.9401H794.341C792.831 52.9401 792.081 53.6201 792.081 54.9001V62.2201H840.36C842.09 62.3001 842.92 62.8201 842.92 63.8001V73.7601H792.07V76.7801C792.07 78.0601 792.821 78.7401 794.331 78.7401H841.1C843.59 78.7401 844.87 80.0201 844.87 82.5101L844.891 82.5201Z" fill="black"/>
<path d="M920.93 76.3396C920.93 87.0496 916.25 92.4096 906.9 92.4096H870.24C861.11 92.4096 856.58 87.8096 856.58 78.5996V78.4496L856.5 73.5496H872.04C872.04 77.0196 873.78 78.7596 877.32 78.7596H899.95C902.44 78.7596 903.72 77.6996 903.72 75.5896C903.72 73.4796 902.44 72.4196 899.95 72.4196H867.81C860.04 72.4196 856.19 66.7596 856.19 55.5196C856.19 44.8796 860.04 39.5996 867.81 39.5996H906.89C915.49 39.5996 920.02 43.9796 920.47 52.7996L920.62 58.4596H903.72C903.72 54.7596 901.98 52.8796 898.44 52.8796H875.81C873.32 52.8796 872.04 54.0896 872.04 56.5796C872.04 59.0696 873.32 60.3496 875.81 60.3496H906.89C916.24 60.3496 920.92 65.7096 920.92 76.3396H920.93Z" fill="black"/>
<path d="M178.05 42.1602H176.05V89.9202H178.05V42.1602Z" fill="black"/>
<path d="M102.11 0H29.89C13.3822 0 0 13.3822 0 29.89V102.11C0 118.618 13.3822 132 29.89 132H102.11C118.618 132 132 118.618 132 102.11V29.89C132 13.3822 118.618 0 102.11 0Z" fill="black"/>
<path d="M80.8299 47.6304L75.7299 93.1204C75.6399 93.9304 76.3499 94.6004 77.1499 94.4604L89.1499 92.4304C90.1799 92.2604 90.9499 93.3804 90.3999 94.2704L81.9999 108.16C81.8499 108.4 81.6299 108.58 81.3599 108.68L59.9099 116.35C59.5099 116.49 59.0599 116.42 58.7299 116.15L52.9699 111.55C52.7799 111.4 52.6499 111.2 52.5699 110.98L52.5499 110.91C52.4999 110.74 52.4799 110.57 52.4999 110.4L57.1399 66.7804C57.2299 65.9504 56.4799 65.2804 55.6699 65.4504L42.9999 68.1304C41.9499 68.3504 41.1399 67.2104 41.6999 66.2904L47.9899 56.0804C48.1499 55.8304 48.3899 55.6404 48.6799 55.5504L79.2499 46.3204C80.0899 46.0704 80.9199 46.7604 80.8199 47.6304H80.8299Z" fill="#CCFE2D"/>
<path d="M70.9897 40.68L59.5897 43.73C59.1597 43.84 58.7097 43.73 58.3997 43.41L50.1797 35.05C49.8297 34.69 49.7297 34.15 49.9397 33.69L53.4097 26C53.5597 25.66 53.8497 25.42 54.2097 25.32L71.3997 20.72C71.5997 20.67 71.8197 20.66 72.0197 20.72C72.2497 20.78 72.4597 20.9 72.6197 21.08L76.6897 25.54C76.9997 25.88 77.0997 26.38 76.9297 26.81L71.8297 39.96C71.6897 40.32 71.3797 40.6 70.9997 40.7L70.9897 40.68Z" fill="#CCFE2D"/>
</g>
<defs>
<clipPath id="clip0_149_726">
<rect width="920.93" height="132" fill="white"/>
</clipPath>
</defs>
</svg>
