<svg width="319" height="319" viewBox="0 0 319 319" fill="none" xmlns="http://www.w3.org/2000/svg">
<g clip-path="url(#clip0_149_29)">
<path d="M246.39 0H72.13C32.2937 0 0 32.2937 0 72.13V246.39C0 286.226 32.2937 318.52 72.13 318.52H246.39C286.226 318.52 318.52 286.226 318.52 246.39V72.13C318.52 32.2937 286.226 0 246.39 0Z" fill="#CCFE2D"/>
<path d="M195.05 114.93L182.75 224.71C182.53 226.66 184.24 228.28 186.18 227.95L215.14 223.05C217.63 222.63 219.47 225.33 218.16 227.5L197.88 261.02C197.53 261.6 196.99 262.04 196.35 262.27L144.6 280.77C143.63 281.12 142.56 280.94 141.76 280.3L127.86 269.19C127.41 268.83 127.08 268.35 126.9 267.81L126.84 267.63C126.71 267.23 126.66 266.81 126.71 266.39L137.9 161.14C138.11 159.14 136.31 157.52 134.35 157.94L103.77 164.41C101.23 164.95 99.2799 162.18 100.64 159.97L115.83 135.33C116.21 134.72 116.8 134.26 117.49 134.05L191.26 111.77C193.29 111.16 195.29 112.82 195.05 114.93Z" fill="black"/>
<path d="M171.29 98.1701L143.79 105.52C142.76 105.79 141.67 105.5 140.92 104.74L121.09 84.5701C120.23 83.7001 120 82.3901 120.5 81.2801L128.87 62.7201C129.23 61.9101 129.94 61.3101 130.8 61.0801L172.27 49.9701C172.76 49.8401 173.28 49.8401 173.77 49.9701C174.33 50.1101 174.83 50.4201 175.22 50.8401L185.03 61.5901C185.79 62.4201 186.01 63.6101 185.6 64.6501L173.29 96.3801C172.95 97.2601 172.21 97.9201 171.3 98.1701H171.29Z" fill="black"/>
</g>
<defs>
<clipPath id="clip0_149_29">
<rect width="318.52" height="318.52" fill="white"/>
</clipPath>
</defs>
</svg>
