<svg width="702" height="54" viewBox="0 0 702 54" fill="none" xmlns="http://www.w3.org/2000/svg">
<path d="M1.63005 53.3493C0.580051 53.3493 0.0500488 52.7493 0.0500488 51.4593V2.4193C0.0500488 1.1393 0.580043 0.529297 1.56004 0.529297H15.89V53.3393H1.63005V53.3493Z" fill="#CCFE2D"/>
<path d="M49.3101 48.0691L46.3701 53.3491H27.2101L57.4601 0.539062H70.7401L100.99 53.3491H82.1301L79.1901 48.0691H49.3201H49.3101ZM65.5301 24.3891H62.9701L57.1601 34.4991H71.3401L65.5301 24.3891Z" fill="#CCFE2D"/>
<path d="M176.43 53.3491H159.83L151.68 39.6991H128.14V53.3491H112.3V2.42906C112.3 1.14906 112.83 0.539062 113.81 0.539062H162.7C171.3 0.539062 175.75 2.94906 176.05 7.77906C176.28 12.6091 176.43 16.6791 176.43 19.9991C176.43 22.9391 176.35 25.8791 176.2 28.8291C175.9 35.0191 173.11 38.4091 167.83 39.2391L176.43 53.3491ZM156.06 26.9491C158.55 26.9491 159.83 25.6691 159.83 23.1791V17.6691C159.83 15.1091 158.55 13.8191 156.06 13.8191H130.41C128.9 13.8191 128.15 14.4991 128.15 15.7791V24.9791C128.15 26.2591 128.9 26.9391 130.41 26.9391H156.06V26.9491Z" fill="#CCFE2D"/>
<path d="M209.86 48.0691L206.92 53.3491H187.76L218.01 0.539062H231.29L261.54 53.3491H242.68L239.74 48.0691H209.87H209.86ZM226.08 24.3891H223.52L217.71 34.4991H231.89L226.08 24.3891Z" fill="#CCFE2D"/>
<path d="M336.67 34.4891V26.9491C336.67 24.4591 337.95 23.1791 340.44 23.1791H374.39C376.88 23.1791 378.16 24.4591 378.16 26.9491V38.2691C378.16 48.2991 371.9 53.3591 359.3 53.4291L327.77 53.3491C319.17 53.3491 314.72 50.0291 314.49 43.3891C314.26 36.8291 314.11 31.3191 314.11 26.9391C314.11 22.5591 314.19 18.1091 314.34 13.7391C314.72 4.90906 319.17 0.539062 327.77 0.539062H364.44C373.04 0.539062 377.57 4.91906 377.94 13.7391L378.09 19.3191H361.64C361.64 15.6191 359.15 13.8091 354.1 13.8091H333.73C331.24 13.8091 329.96 15.0891 329.96 17.6591V36.3691C329.96 38.5591 331.24 39.6891 333.73 39.6891H357.87C360.36 39.6891 361.64 37.9491 361.64 34.4791H336.67V34.4891Z" fill="#CCFE2D"/>
<path d="M411.58 48.0691L408.64 53.3491H389.48L419.73 0.539062H433.01L463.26 53.3491H444.4L441.46 48.0691H411.59H411.58ZM427.8 24.3891H425.24L419.43 34.4991H433.61L427.8 24.3891Z" fill="#CCFE2D"/>
<path d="M490.42 53.3493H476.31C475.18 53.3493 474.58 52.7493 474.58 51.4593V2.4193C474.58 1.1393 475.11 0.529297 476.24 0.529297H490.42L509.88 32.2093H513.43L532.67 0.529297H548.36C549.49 0.529297 550.02 1.1293 550.02 2.4193V51.8293C550.02 52.8093 549.49 53.3393 548.36 53.3393H532.67V32.1393L519.02 53.3393H503.93L490.43 31.9893V53.3393L490.42 53.3493Z" fill="#CCFE2D"/>
<path d="M625.47 43.4693V53.3493H562.93C561.87 53.3493 561.35 52.7493 561.35 51.4593V2.4193C561.35 1.1393 561.88 0.529297 562.86 0.529297H621.7C624.19 0.529297 625.47 1.73929 625.47 4.22929V13.8893H574.92C573.41 13.8893 572.66 14.5693 572.66 15.8493V23.1693H620.94C622.67 23.2493 623.5 23.7693 623.5 24.7493V34.7093H572.65V37.7293C572.65 39.0093 573.4 39.6893 574.91 39.6893H621.68C624.17 39.6893 625.45 40.9693 625.45 43.4593L625.47 43.4693Z" fill="#CCFE2D"/>
<path d="M701.51 37.2893C701.51 47.9993 696.83 53.3593 687.48 53.3593H650.82C641.69 53.3593 637.16 48.7593 637.16 39.5493V39.3993L637.08 34.4993H652.62C652.62 37.9693 654.36 39.7093 657.9 39.7093H680.53C683.02 39.7093 684.3 38.6493 684.3 36.5393C684.3 34.4293 683.02 33.3693 680.53 33.3693H648.39C640.62 33.3693 636.77 27.7093 636.77 16.4693C636.77 5.82932 640.62 0.549316 648.39 0.549316H687.47C696.07 0.549316 700.6 4.92932 701.05 13.7493L701.2 19.4093H684.3C684.3 15.7093 682.56 13.8293 679.02 13.8293H656.39C653.9 13.8293 652.62 15.0393 652.62 17.5293C652.62 20.0193 653.9 21.2993 656.39 21.2993H687.47C696.82 21.2993 701.5 26.6593 701.5 37.2893H701.51Z" fill="#CCFE2D"/>
</svg>
