<svg width="921" height="132" viewBox="0 0 921 132" fill="none" xmlns="http://www.w3.org/2000/svg">
<g clip-path="url(#clip0_149_10)">
<path d="M221.05 92.4001C220 92.4001 219.47 91.8001 219.47 90.5101V41.4701C219.47 40.1901 220 39.5801 220.98 39.5801H235.31V92.3901H221.05V92.4001Z" fill="#CCFE2D"/>
<path d="M268.73 87.1198L265.79 92.3998H246.63L276.88 39.5898H290.16L320.41 92.3998H301.55L298.61 87.1198H268.74H268.73ZM284.95 63.4398H282.39L276.58 73.5498H290.76L284.95 63.4398Z" fill="#CCFE2D"/>
<path d="M395.85 92.3998H379.25L371.1 78.7498H347.56V92.3998H331.72V41.4798C331.72 40.1998 332.25 39.5898 333.23 39.5898H382.12C390.72 39.5898 395.17 41.9998 395.47 46.8298C395.7 51.6598 395.85 55.7298 395.85 59.0498C395.85 61.9898 395.77 64.9298 395.62 67.8798C395.32 74.0698 392.53 77.4598 387.25 78.2898L395.85 92.3998ZM375.48 65.9998C377.97 65.9998 379.25 64.7198 379.25 62.2298V56.7198C379.25 54.1598 377.97 52.8698 375.48 52.8698H349.83C348.32 52.8698 347.57 53.5498 347.57 54.8298V64.0298C347.57 65.3098 348.32 65.9898 349.83 65.9898H375.48V65.9998Z" fill="#CCFE2D"/>
<path d="M429.28 87.1198L426.34 92.3998H407.18L437.43 39.5898H450.71L480.96 92.3998H462.1L459.16 87.1198H429.29H429.28ZM445.5 63.4398H442.94L437.13 73.5498H451.31L445.5 63.4398Z" fill="#CCFE2D"/>
<path d="M556.09 73.5398V65.9998C556.09 63.5098 557.37 62.2298 559.86 62.2298H593.81C596.3 62.2298 597.58 63.5098 597.58 65.9998V77.3198C597.58 87.3498 591.32 92.4098 578.72 92.4798L547.19 92.3998C538.59 92.3998 534.14 89.0798 533.91 82.4398C533.68 75.8798 533.53 70.3698 533.53 65.9898C533.53 61.6098 533.61 57.1598 533.76 52.7898C534.14 43.9598 538.59 39.5898 547.19 39.5898H583.86C592.46 39.5898 596.99 43.9698 597.36 52.7898L597.51 58.3698H581.06C581.06 54.6698 578.57 52.8598 573.52 52.8598H553.15C550.66 52.8598 549.38 54.1398 549.38 56.7098V75.4198C549.38 77.6098 550.66 78.7398 553.15 78.7398H577.29C579.78 78.7398 581.06 76.9998 581.06 73.5298H556.09V73.5398Z" fill="#CCFE2D"/>
<path d="M631 87.1198L628.06 92.3998H608.9L639.15 39.5898H652.43L682.68 92.3998H663.82L660.88 87.1198H631.01H631ZM647.22 63.4398H644.66L638.85 73.5498H653.03L647.22 63.4398Z" fill="#CCFE2D"/>
<path d="M709.84 92.4001H695.73C694.6 92.4001 694 91.8001 694 90.5101V41.4701C694 40.1901 694.53 39.5801 695.66 39.5801H709.84L729.3 71.2601H732.85L752.09 39.5801H767.78C768.91 39.5801 769.44 40.1801 769.44 41.4701V90.8801C769.44 91.8601 768.91 92.3901 767.78 92.3901H752.09V71.1901L738.44 92.3901H723.35L709.85 71.0401V92.3901L709.84 92.4001Z" fill="#CCFE2D"/>
<path d="M844.89 82.5201V92.4001H782.35C781.29 92.4001 780.77 91.8001 780.77 90.5101V41.4701C780.77 40.1901 781.3 39.5801 782.28 39.5801H841.12C843.61 39.5801 844.89 40.7901 844.89 43.2801V52.9401H794.34C792.83 52.9401 792.08 53.6201 792.08 54.9001V62.2201H840.36C842.09 62.3001 842.92 62.8201 842.92 63.8001V73.7601H792.07V76.7801C792.07 78.0601 792.82 78.7401 794.33 78.7401H841.1C843.59 78.7401 844.87 80.0201 844.87 82.5101L844.89 82.5201Z" fill="#CCFE2D"/>
<path d="M920.93 76.3401C920.93 87.0501 916.25 92.4101 906.9 92.4101H870.24C861.11 92.4101 856.58 87.8101 856.58 78.6001V78.4501L856.5 73.5501H872.04C872.04 77.0201 873.78 78.7601 877.32 78.7601H899.95C902.44 78.7601 903.72 77.7001 903.72 75.5901C903.72 73.4801 902.44 72.4201 899.95 72.4201H867.81C860.04 72.4201 856.19 66.7601 856.19 55.5201C856.19 44.8801 860.04 39.6001 867.81 39.6001H906.89C915.49 39.6001 920.02 43.9801 920.47 52.8001L920.62 58.4601H903.72C903.72 54.7601 901.98 52.8801 898.44 52.8801H875.81C873.32 52.8801 872.04 54.0901 872.04 56.5801C872.04 59.0701 873.32 60.3501 875.81 60.3501H906.89C916.24 60.3501 920.92 65.7101 920.92 76.3401H920.93Z" fill="#CCFE2D"/>
<path d="M178.05 42.1602H176.05V89.9202H178.05V42.1602Z" fill="#CCFE2D"/>
<path d="M102.11 0H29.89C13.3822 0 0 13.3822 0 29.89V102.11C0 118.618 13.3822 132 29.89 132H102.11C118.618 132 132 118.618 132 102.11V29.89C132 13.3822 118.618 0 102.11 0Z" fill="#CCFE2D"/>
<path d="M80.83 47.6299L75.73 93.1199C75.64 93.9299 76.35 94.5999 77.15 94.4599L89.15 92.4299C90.18 92.2599 90.95 93.3799 90.4 94.2699L82 108.16C81.85 108.4 81.63 108.58 81.36 108.68L59.91 116.35C59.51 116.49 59.06 116.42 58.73 116.15L52.97 111.55C52.78 111.4 52.65 111.2 52.57 110.98L52.55 110.91C52.5 110.74 52.48 110.57 52.5 110.4L57.14 66.7799C57.23 65.9499 56.48 65.2799 55.67 65.4499L43 68.1299C41.95 68.3499 41.14 67.2099 41.7 66.2899L47.99 56.0799C48.15 55.8299 48.39 55.6399 48.68 55.5499L79.25 46.3199C80.09 46.0699 80.92 46.7599 80.82 47.6299H80.83Z" fill="black"/>
<path d="M70.99 40.68L59.59 43.73C59.16 43.84 58.71 43.73 58.4 43.41L50.18 35.05C49.83 34.69 49.73 34.15 49.94 33.69L53.41 26C53.56 25.66 53.85 25.42 54.21 25.32L71.4 20.72C71.6 20.67 71.82 20.66 72.02 20.72C72.25 20.78 72.46 20.9 72.62 21.08L76.69 25.54C77 25.88 77.1 26.38 76.93 26.81L71.83 39.96C71.69 40.32 71.38 40.6 71 40.7L70.99 40.68Z" fill="black"/>
</g>
<defs>
<clipPath id="clip0_149_10">
<rect width="920.93" height="132" fill="white"/>
</clipPath>
</defs>
</svg>
