<svg width="16" height="30" viewBox="0 0 16 30" fill="none" xmlns="http://www.w3.org/2000/svg">
<path d="M0.0512689 29.25C0.0512689 29.6642 0.387286 30.002 0.800982 29.9813C4.50625 29.796 8.02204 28.2424 10.6579 25.6066C13.4709 22.7936 15.0513 18.9782 15.0513 15C15.0513 11.0218 13.4709 7.20645 10.6579 4.3934C8.02204 1.75757 4.50625 0.204011 0.800987 0.0187292C0.38729 -0.00195763 0.0512724 0.335786 0.0512723 0.75V0.75C0.0512722 1.16421 0.387395 1.49783 0.80097 1.52081C4.10815 1.70462 7.24275 3.09959 9.59721 5.45406C12.129 7.9858 13.5513 11.4196 13.5513 15C13.5513 18.5804 12.129 22.0142 9.59721 24.5459C7.24274 26.9004 4.10814 28.2954 0.800967 28.4792C0.387391 28.5022 0.0512689 28.8358 0.0512689 29.25V29.25Z" fill="url(#paint0_linear_89_717)"/>
<defs>
<linearGradient id="paint0_linear_89_717" x1="15.0513" y1="15" x2="1.05127" y2="15" gradientUnits="userSpaceOnUse">
<stop stop-color="#CCFE2C"/>
<stop offset="0.175" stop-color="#87A91A"/>
<stop offset="0.35" stop-color="#5C740F"/>
<stop offset="1" stop-opacity="0"/>
</linearGradient>
</defs>
</svg>
